<svg aria-hidden="true" style="position:absolute;width:0;height:0;overflow:hidden" xmlns="http://www.w3.org/2000/svg">
  <defs>
     <symbol id="icon-close" viewBox="0 0 32 32">
      <path d="M32 3.223 28.777 0 16 12.777 3.223 0 0 3.223 12.777 16 0 28.777 3.223 32 16 19.223 28.777 32 32 28.777 19.223 16 32 3.223z"/>
    </symbol>
    <symbol id="icon-eye" viewBox="0 0 32 32">
      <path d="M31.097 15.542C28.822 10.735 22.05 4.8 16 4.8 9.192 4.8 2.699 11.746.903 15.542a1.07 1.07 0 0 0 0 .915C3.178 21.265 9.95 27.199 16 27.199c6.808 0 13.301-6.947 15.097-10.742a1.07 1.07 0 0 0 0-.915zM16 25.067c-4.895 0-10.553-4.839-12.934-9.067C5.437 11.789 11.093 6.933 16 6.933c4.895 0 10.553 4.838 12.934 9.067-2.371 4.211-8.027 9.067-12.934 9.067zm0-14.4c-2.929 0-5.313 2.393-5.313 5.333S13.07 21.333 16 21.333c2.929 0 5.312-2.392 5.312-5.333S18.929 10.667 16 10.667zm0 8.533c-1.758 0-3.188-1.436-3.188-3.2s1.43-3.2 3.188-3.2c1.758 0 3.188 1.435 3.188 3.2s-1.43 3.2-3.188 3.2z"/>
    </symbol>
   
    <symbol id="icon-lists" viewBox="0 0 32 32"  fill="none" >
      <path stroke-linejoin="miter" stroke-linecap="butt" stroke-miterlimit="4" stroke-width="2.0800" d="M6.4 2.64h19.2c1.193 0 2.16 0.967 2.16 2.16v22.4c0 1.193-0.967 2.16-2.16 2.16h-19.2c-1.193 0-2.16-0.967-2.16-2.16v-22.4c0-1.193 0.967-2.16 2.16-2.16z"></path>
      <path stroke-linejoin="miter" stroke-linecap="butt" stroke-miterlimit="4" stroke-width="1.0400" d="M9.040 8.52h13.92c0.287 0 0.52 0.233 0.52 0.52s-0.233 0.52-0.52 0.52h-13.92c-0.287 0-0.52-0.233-0.52-0.52s0.233-0.52 0.52-0.52z"></path>
      <path stroke-linejoin="miter" stroke-linecap="butt" stroke-miterlimit="4" stroke-width="1.0400" d="M9.040 13.32h13.92c0.287 0 0.52 0.233 0.52 0.52s-0.233 0.52-0.52 0.52h-13.92c-0.287 0-0.52-0.233-0.52-0.52s0.233-0.52 0.52-0.52z"></path>
      <path stroke-linejoin="miter" stroke-linecap="butt" stroke-miterlimit="4" stroke-width="1.0400" d="M9.040 18.12h13.92c0.287 0 0.52 0.233 0.52 0.52s-0.233 0.52-0.52 0.52h-13.92c-0.287 0-0.52-0.233-0.52-0.52s0.233-0.52 0.52-0.52z"></path>
      <path stroke-linejoin="miter" stroke-linecap="butt" stroke-miterlimit="4" stroke-width="1.0400" d="M9.040 22.92h9.12c0.287 0 0.52 0.233 0.52 0.52s-0.233 0.52-0.52 0.52h-9.12c-0.287 0-0.52-0.233-0.52-0.52s0.233-0.52 0.52-0.52z"></path>
    </symbol>
    <symbol id="icon-message" viewBox="0 0 32 32">
      <path d="M16 0C7.157 0 0 7.156 0 16c0 2.806.732 5.547 2.122 7.965L.06 30.367a1.248 1.248 0 0 0 1.573 1.573l6.402-2.061A15.96 15.96 0 0 0 16 32.001c8.843 0 16-7.156 16-16 0-8.843-7.156-16-16-16zm0 29.5c-2.535 0-5.006-.707-7.146-2.045a1.254 1.254 0 0 0-1.046-.13l-4.621 1.488 1.488-4.621a1.252 1.252 0 0 0-.13-1.046A13.462 13.462 0 0 1 2.5 16C2.5 8.556 8.556 2.5 16 2.5S29.5 8.556 29.5 16 23.444 29.5 16 29.5zM17.563 16a1.563 1.563 0 1 1-3.125 0 1.563 1.563 0 0 1 3.125 0zm6.249 0a1.562 1.562 0 1 1-3.125.001A1.562 1.562 0 0 1 23.812 16zm-12.499 0a1.563 1.563 0 1 1-3.125 0 1.563 1.563 0 0 1 3.125 0z"/>
    </symbol>
    <symbol id="icon-person" viewBox="0 0 32 32">
      <path d="m30.326 18.455-7.815 8.701-4.41-4.198-1.551 1.63 6.088 5.795L32 19.959l-1.674-1.503z"/>
      <path d="M20.716 16.786a8.32 8.32 0 0 0 3.615-6.861c0-4.59-3.735-8.325-8.325-8.325S7.681 5.335 7.681 9.925a8.32 8.32 0 0 0 3.615 6.86 14.346 14.346 0 0 0-5.472 3.432 14.305 14.305 0 0 0-4.218 10.182h2.25c0-6.7 5.45-12.15 12.15-12.15 2.84 0 5.455.981 7.526 2.62l1.511-1.682a14.28 14.28 0 0 0-4.326-2.402zM16.006 16c-3.35 0-6.075-2.725-6.075-6.075s2.725-6.075 6.075-6.075 6.075 2.725 6.075 6.075S19.356 16 16.006 16z"/>
    </symbol>
    <symbol id="icon-menu-open" viewBox="0 0 32 32">
      <path d="M29.625 7.125H2.375A.376.376 0 0 1 2 6.75v-1.5a.378.378 0 0 1 .375-.375h27.25A.376.376 0 0 1 30 5.25v1.5a.378.378 0 0 1-.375.375zm0 10H2.375A.376.376 0 0 1 2 16.75v-1.5a.378.378 0 0 1 .375-.375h27.25a.376.376 0 0 1 .375.375v1.5a.378.378 0 0 1-.375.375zm0 10H2.375A.376.376 0 0 1 2 26.75v-1.5a.378.378 0 0 1 .375-.375h27.25a.376.376 0 0 1 .375.375v1.5a.378.378 0 0 1-.375.375z"/>
    </symbol>
  </defs>
</svg>
