<svg width="95" height="32" viewBox="0 0 95 32" fill="none" xmlns="http://www.w3.org/2000/svg">
<path d="M12.6562 25V22.9492L14.4727 22.5977V10.3516L12.6562 10V7.9375H14.4727H19.5352L24.1875 19.832H24.2578L28.7578 7.9375H35.6484V10L33.8203 10.3516V22.5977L35.6484 22.9492V25H28.582V22.9492L30.4922 22.5977V19.3281L30.5508 11.6289L30.4805 11.6172L25.3828 24.7656H22.793L17.5781 11.7227L17.5078 11.7344L17.707 18.9766V22.5977L19.7227 22.9492V25H12.6562ZM36.8672 25V22.9492L38.6836 22.5977V10.3516L36.8672 10V7.9375H50.1094V12.543H47.4844L47.332 10.5742H42.1055V14.8633H47.8828V17.5H42.1055V22.375H47.6133L47.7656 20.3359H50.3672V25H36.8672ZM56.3555 25V22.9492L58.1836 22.5977V10.5742H55.0781L54.8906 12.6133H52.3008V7.9375H67.5234V12.6133H64.9219L64.7344 10.5742H61.6055V22.5977L63.4453 22.9492V25H56.3555ZM66.4336 25V22.9492L67.6523 22.7734L73.0781 7.9375H76.582L81.9727 22.7734L83.1914 22.9492V25H77.3789V22.9492L78.5625 22.7383L77.8125 20.3945H71.8125L71.0625 22.7383L72.2461 22.9492V25H66.4336ZM72.6211 17.875H77.0039L75.0117 12.0273L74.8477 11.5117H74.7773L74.6016 12.0625L72.6211 17.875Z" fill="white"/>
<path d="M88 6L93 16L88 26" stroke="#4B99F5" stroke-width="2"/>
<path d="M7 26L2 16L7 6" stroke="#4B99F5" stroke-width="2"/>
</svg>
